<?xml version="1.0" encoding="utf-8"?>
<!-- Generator: Adobe Illustrator 16.0.0, SVG Export Plug-In . SVG Version: 6.00 Build 0)  -->
<!DOCTYPE svg PUBLIC "-//W3C//DTD SVG 1.1//EN" "http://www.w3.org/Graphics/SVG/1.1/DTD/svg11.dtd">
<svg version="1.1" id="Layer_1" xmlns="http://www.w3.org/2000/svg" xmlns:xlink="http://www.w3.org/1999/xlink" x="0px" y="0px"
	 width="201.492px" height="113.433px" viewBox="0 0 201.492 113.433" enable-background="new 0 0 201.492 113.433"
	 xml:space="preserve">
<g>
	<path fill="#0F1B0F" d="M47.343,47.662c-1.799,1.553-3.747,2.725-5.827,3.518v44.158h11.195V38.947
		C51.784,43.203,50.666,44.801,47.343,47.662z"/>
</g>
<path fill="#27AE71" d="M96.311,48.282H84.118v-4.818c-1.16,1.459-2.334,2.52-3.516,3.188c-2.074,1.162-4.432,1.744-7.072,1.744
	c-4.268,0-8.07-1.469-11.4-4.406c-3.973-3.508-5.959-8.148-5.959-13.926c0-5.873,2.035-10.564,6.107-14.068
	c3.232-2.791,6.947-4.186,11.141-4.186c2.445,0,4.738,0.506,6.887,1.521c1.232,0.592,2.504,1.568,3.812,2.928v-3.373h12.193V48.282z
	 M84.489,30.083c0-2.162-0.764-4.002-2.289-5.516c-1.523-1.512-3.369-2.268-5.533-2.268c-2.408,0-4.389,0.91-5.938,2.73
	c-1.256,1.475-1.883,3.16-1.883,5.053c0,1.895,0.627,3.578,1.883,5.055c1.523,1.82,3.502,2.73,5.938,2.73
	c2.189,0,4.041-0.752,5.551-2.25C83.731,34.118,84.489,32.272,84.489,30.083z"/>
<path fill="#27AE71" d="M138.523,53.282h-12.195V29.886c0-3.035-0.344-5.045-1.031-6.031c-1.006-1.457-2.516-2.186-4.531-2.186
	c-1.84,0-3.757,0.627-5.009,1.881c-1.129,1.131-1.693,2.902-1.693,5.311v24.422h-12.195V12.886h12.195v4.336
	c1.404-1.631,2.701-2.781,3.885-3.447c1.924-1.088,4.698-1.631,7.585-1.631c3.701,0,6.711,1.002,9.031,3.002
	c2.639,2.273,3.959,5.684,3.959,10.23V53.282z"/>
<g>
	<path fill="#27AE71" d="M44.858,16.216c-3.332-2.938-7.133-4.406-11.402-4.406c-2.641,0-4.998,0.58-7.07,1.744
		c-1.258,0.691-2.432,1.754-3.516,3.188v-3.855H10.674v51.926c0.475-0.7,0.98-1.386,1.554-2.045
		c2.841-3.28,6.417-5.415,10.642-6.438v-12.42c1.307,1.359,2.578,2.334,3.812,2.928c2.146,1.039,4.441,1.559,6.885,1.559
		c4.195,0,7.908-1.395,11.143-4.186c4.07-3.506,6.107-8.195,6.107-14.072C50.817,24.362,48.831,19.722,44.858,16.216z
		 M36.258,35.192c-1.525,1.834-3.504,2.75-5.939,2.75c-2.164,0-4.01-0.764-5.533-2.285c-1.525-1.523-2.287-3.375-2.287-5.557
		c0-2.203,0.756-4.061,2.268-5.572c1.514-1.51,3.363-2.266,5.553-2.266c2.436,0,4.426,0.916,5.977,2.748
		c1.23,1.438,1.844,3.135,1.844,5.09C38.139,32.009,37.512,33.706,36.258,35.192z"/>
</g>
<g>
	<path fill="#0F1B0F" d="M38.62,94.596c-2.52,1.262-5.164,1.893-7.932,1.893c-6.277,0-11.256-2.125-14.938-6.377
		c-2.965-3.434-4.447-7.412-4.447-11.936c0-4.545,1.482-8.525,4.447-11.936c3.682-4.25,8.66-6.375,14.938-6.375
		c2.816,0,5.461,0.645,7.932,1.928v10.342c-2.145-1.506-4.24-2.262-6.285-2.262c-2.416,0-4.412,0.779-5.99,2.336
		s-2.365,3.547-2.365,5.967c0,2.422,0.787,4.412,2.365,5.967c1.578,1.559,3.574,2.336,5.99,2.336c2.021,0,4.115-0.74,6.285-2.225
		V94.596z"/>
</g>
<path fill="#0F1B0F" d="M97.971,77.275c0,4.992-1.57,9.272-4.708,12.842c-3.805,4.345-9.131,6.52-15.975,6.52
	c-6.869,0-12.207-2.175-16.012-6.52c-3.139-3.569-4.709-7.952-4.709-13.152c0-4.68,1.582-8.832,4.746-12.453
	c3.83-4.371,9.279-6.557,16.346-6.557c6.498,0,11.688,2.186,15.566,6.557C96.389,68.08,97.971,72.336,97.971,77.275z M85.293,77.275
	c0-2.339-0.779-4.319-2.342-5.942c-1.562-1.626-3.449-2.437-5.664-2.437c-2.51,0-4.549,0.986-6.125,2.961
	c-1.279,1.587-1.918,3.393-1.918,5.418c0,2.053,0.639,3.872,1.918,5.458c1.576,1.973,3.615,2.962,6.125,2.962
	c2.238,0,4.131-0.812,5.682-2.437S85.293,79.641,85.293,77.275z"/>
<path fill="#0F1B0F" d="M138.523,82.773c0,6.398-3.025,10.648-9.08,12.75c-2.521,0.863-5.598,1.297-9.23,1.297
	c-7.141,0-12.268-1.754-15.381-5.264c-1.979-2.223-2.967-5.152-2.967-8.783V52.941h12.195v27.496c0,2.15,0.516,3.73,1.547,4.744
	c1.105,1.088,2.641,1.631,4.605,1.631c1.939,0,3.463-0.543,4.568-1.631c1.033-1.014,1.547-2.594,1.547-4.744V52.941h12.195V82.773z"
	/>
<path fill="#27AE71" d="M182.523,47.282H170.33v-3.818c-1.16,1.459-2.334,2.52-3.518,3.188c-2.072,1.162-4.43,1.744-7.07,1.744
	c-4.27,0-8.07-1.469-11.4-4.406c-3.973-3.508-5.961-8.148-5.961-13.926c0-5.873,2.037-10.564,6.109-14.068
	c3.232-2.791,6.945-4.186,11.141-4.186c2.443,0,4.738,0.506,6.887,1.521c1.232,0.592,2.504,1.568,3.812,2.928v-3.373h12.193V47.282z
	 M170.701,30.083c0-2.162-0.764-4.002-2.289-5.516c-1.523-1.512-3.369-2.268-5.533-2.268c-2.41,0-4.389,0.91-5.939,2.73
	c-1.254,1.475-1.881,3.16-1.881,5.053c0,1.895,0.627,3.578,1.881,5.055c1.525,1.82,3.504,2.73,5.939,2.73
	c2.189,0,4.039-0.752,5.553-2.25C169.943,34.118,170.701,32.272,170.701,30.083z"/>
<path fill="#0F1B0F" d="M182.523,95.338H170.33V91.52c-1.16,1.459-2.334,2.52-3.518,3.188c-2.072,1.16-4.43,1.744-7.07,1.744
	c-4.27,0-8.07-1.469-11.4-4.406c-3.973-3.508-5.961-8.148-5.961-13.926c0-5.873,2.037-10.564,6.109-14.068
	c3.232-2.791,6.945-4.186,11.141-4.186c2.443,0,4.738,0.52,6.887,1.559c1.232,0.59,2.504,1.568,3.812,2.928V50.619h12.193V95.338z
	 M170.701,78.156c0-2.178-0.764-4.029-2.289-5.553c-1.523-1.523-3.369-2.285-5.533-2.285c-2.41,0-4.389,0.916-5.939,2.748
	c-1.254,1.488-1.881,3.184-1.881,5.09c0,1.908,0.627,3.605,1.881,5.092c1.525,1.834,3.504,2.75,5.939,2.75
	c2.189,0,4.039-0.756,5.553-2.268C169.943,82.221,170.701,80.361,170.701,78.156z"/>
</svg>
